<?xml version="1.0" standalone="no"?>
<!DOCTYPE svg PUBLIC "-//W3C//DTD SVG 20010904//EN"
 "http://www.w3.org/TR/2001/REC-SVG-20010904/DTD/svg10.dtd">
<svg version="1.0" xmlns="http://www.w3.org/2000/svg"
 width="300.000000pt" height="300.000000pt" viewBox="0 0 300.000000 300.000000"
 preserveAspectRatio="xMidYMid meet">

<g transform="translate(0.000000,300.000000) scale(0.100000,-0.100000)"
fill="#000000" stroke="none">
<path d="M2690 2389 c-60 -25 -79 -28 -97 -20 -17 8 -35 7 -71 -4 -26 -8 -69
-22 -97 -31 -27 -9 -59 -19 -70 -24 -45 -19 -194 -74 -249 -91 -79 -25 -166
-24 -311 6 -132 27 -344 34 -433 15 -26 -6 -69 -15 -97 -21 -129 -28 -316
-149 -397 -256 -53 -70 -104 -177 -129 -268 -18 -63 -22 -109 -23 -215 -1
-127 1 -140 32 -228 63 -183 55 -199 -220 -402 -48 -36 -85 -71 -83 -77 2 -7
0 -13 -5 -13 -6 0 -10 -6 -10 -12 0 -7 -37 -38 -83 -68 -80 -53 -97 -67 -97
-83 0 -8 49 2 65 13 27 20 137 52 162 47 38 -7 188 36 308 88 17 7 62 21 100
30 91 23 169 15 305 -28 58 -19 140 -40 182 -47 97 -16 330 -8 413 14 233 63
409 200 500 391 66 139 80 206 79 370 -1 151 -4 165 -66 318 -30 75 -38 106
-33 129 10 46 75 110 218 216 90 67 124 98 115 103 -10 7 -9 9 4 9 10 0 15 6
13 13 -3 7 34 39 85 75 125 87 122 104 -10 51z m-1030 -240 c19 -5 48 -9 63
-9 16 0 26 -4 22 -10 -3 -5 -31 -10 -61 -10 -40 0 -54 -4 -54 -14 0 -8 8 -17
19 -21 10 -3 27 -15 37 -27 11 -12 14 -18 7 -14 -17 10 54 -106 76 -125 11 -9
21 -30 23 -48 2 -17 7 -31 11 -31 22 2 61 19 105 48 47 31 19 -5 -35 -43 -31
-22 -62 -46 -70 -54 -12 -11 -24 -8 -81 20 -64 32 -72 34 -177 34 -92 0 -118
-4 -157 -22 -138 -64 -224 -222 -216 -398 l3 -59 -153 -103 c-84 -57 -159
-103 -167 -103 -13 0 -33 51 -54 142 -18 76 -14 282 8 363 62 240 220 401 455
465 136 38 295 45 396 19z m566 -358 c44 -87 65 -198 65 -328 0 -201 -59 -351
-191 -484 -121 -122 -262 -181 -461 -193 -54 -3 -77 -2 -54 3 57 10 114 51 72
51 -7 0 -36 23 -64 50 -28 28 -56 50 -62 50 -6 0 -11 6 -11 13 0 8 -9 22 -20
32 -11 10 -20 24 -20 31 0 8 -19 23 -42 34 -91 44 -188 114 -175 126 3 3 16
-4 29 -16 66 -63 213 -95 330 -71 74 16 167 76 212 138 63 87 89 216 66 323
-24 110 -31 98 130 209 80 54 150 98 155 97 6 -1 24 -30 41 -65z m-544 -68
c102 -40 134 -92 132 -218 -2 -136 -55 -233 -156 -287 -66 -35 -182 -32 -266
6 -104 48 -151 121 -137 214 11 72 48 164 85 210 52 65 116 92 217 92 54 0 97
-6 125 -17z m-432 -528 c0 -9 -6 -12 -15 -9 -8 4 -15 10 -15 15 0 5 7 9 15 9
8 0 15 -7 15 -15z"/>
</g>
</svg>
